<svg width="287" height="287" xmlns="http://www.w3.org/2000/svg" xmlns:xlink="http://www.w3.org/1999/xlink" overflow="hidden"><defs><clipPath id="clip0"><rect x="642" y="31" width="287" height="287"/></clipPath></defs><g clip-path="url(#clip0)" transform="translate(-642 -31)"><path d="M645.903 33.927C645.903 34.4656 645.466 34.9026 644.927 34.9026 644.388 34.9026 643.951 34.4656 643.951 33.927 643.951 33.3884 644.388 32.9513 644.927 32.9513 645.466 32.9513 645.903 33.3884 645.903 33.927" fill="#F9423A"/><path d="M682.998 33.927C682.998 35.5434 681.687 36.854 680.071 36.854 678.454 36.854 677.144 35.5434 677.144 33.927 677.144 32.3106 678.454 31 680.071 31 681.686 31.003 682.995 32.3116 682.998 33.927" fill="#F9423A"/><path d="M716.19 33.927C716.193 34.4686 715.756 34.9097 715.215 34.9127 714.673 34.9152 714.232 34.4787 714.229 33.937 714.227 33.3954 714.663 32.9543 715.205 32.9513 715.208 32.9513 715.211 32.9513 715.215 32.9513 715.753 32.9513 716.19 33.3884 716.19 33.927" fill="#F9423A"/><path d="M751.354 33.927C751.354 34.4656 750.917 34.9026 750.379 34.9026 749.84 34.9026 749.403 34.4656 749.403 33.927 749.403 33.3884 749.84 32.9513 750.379 32.9513 750.917 32.9513 751.354 33.3884 751.354 33.927" fill="#F9423A"/><path d="M786.473 33.927C786.473 34.4656 786.036 34.9026 785.497 34.9026 784.959 34.9026 784.522 34.4656 784.522 33.927 784.522 33.3884 784.959 32.9513 785.497 32.9513 786.036 32.9513 786.473 33.3884 786.473 33.927" fill="#F9423A"/><path d="M821.617 33.927C821.617 34.4656 821.18 34.9026 820.641 34.9026 820.103 34.9026 819.666 34.4656 819.666 33.927 819.666 33.3884 820.103 32.9513 820.641 32.9513 821.18 32.9513 821.617 33.3884 821.617 33.927" fill="#F9423A"/><path d="M856.761 33.927C856.761 34.4656 856.324 34.9026 855.785 34.9026 855.247 34.9026 854.81 34.4656 854.81 33.927 854.81 33.3884 855.247 32.9513 855.785 32.9513 856.324 32.9513 856.761 33.3884 856.761 33.927" fill="#F9423A"/><path d="M647.854 69.0709C647.854 70.6872 646.544 71.9979 644.927 71.9979 643.31 71.9979 642 70.6872 642 69.0709 641.997 67.4545 643.305 66.1419 644.922 66.1389 644.924 66.1389 644.925 66.1389 644.927 66.1389 646.544 66.1389 647.854 67.4495 647.854 69.0658 647.854 69.0673 647.854 69.0694 647.854 69.0709" fill="#F9423A"/><path d="M685.925 69.0709C685.925 72.3066 683.302 74.9299 680.066 74.9299 676.83 74.9299 674.207 72.3066 674.207 69.0709 674.207 65.8351 676.83 63.2119 680.066 63.2119 680.068 63.2119 680.069 63.2119 680.071 63.2119 683.304 63.2119 685.925 65.8326 685.925 69.0658 685.925 69.0673 685.925 69.0694 685.925 69.0709" fill="#F9423A"/><path d="M718.162 69.0709C718.162 70.6903 716.849 72.0029 715.23 72.0029 713.61 72.0029 712.298 70.6903 712.298 69.0709 712.298 67.4515 713.61 66.1389 715.23 66.1389 715.231 66.1389 715.233 66.1389 715.235 66.1389 716.852 66.1419 718.162 67.4535 718.162 69.0709" fill="#F9423A"/><path d="M751.354 69.0709C751.351 69.6095 750.912 70.044 750.374 70.0415 749.835 70.0385 749.401 69.5994 749.403 69.0608 749.406 68.5237 749.842 68.0902 750.379 68.0902 750.917 68.0902 751.354 68.5272 751.354 69.0658 751.354 69.0673 751.354 69.0694 751.354 69.0709" fill="#F9423A"/><path d="M789.405 69.5587C789.405 71.7167 787.656 73.4664 785.497 73.4664 783.339 73.4664 781.59 71.7167 781.59 69.5587 781.59 67.4007 783.339 65.651 785.497 65.651 787.656 65.651 789.405 67.4007 789.405 69.5587" fill="#F9423A"/><path d="M821.617 69.0709C821.614 69.6095 821.175 70.044 820.636 70.0415 820.098 70.0385 819.663 69.5994 819.666 69.0608 819.669 68.5237 820.104 68.0902 820.641 68.0902 821.18 68.0902 821.617 68.5272 821.617 69.0658 821.617 69.0673 821.617 69.0694 821.617 69.0709" fill="#F9423A"/><path d="M858.712 69.0709C858.712 70.6903 857.4 72.0029 855.78 72.0029 854.161 72.0029 852.848 70.6903 852.848 69.0709 852.848 67.4515 854.161 66.1389 855.78 66.1389 855.782 66.1389 855.784 66.1389 855.785 66.1389 857.403 66.1419 858.712 67.4535 858.712 69.0709" fill="#F9423A"/><path d="M645.903 104.21C645.903 104.748 645.466 105.185 644.927 105.185 644.388 105.185 643.951 104.748 643.951 104.21 643.951 103.671 644.388 103.234 644.927 103.234 645.466 103.234 645.903 103.671 645.903 104.21" fill="#F9423A"/><path d="M682.998 104.21C682.998 105.826 681.687 107.137 680.071 107.137 678.454 107.137 677.144 105.826 677.144 104.21 677.144 102.593 678.454 101.283 680.071 101.283 681.686 101.285 682.995 102.594 682.998 104.21" fill="#F9423A"/><path d="M716.19 104.21C716.193 104.751 715.756 105.192 715.215 105.195 714.673 105.198 714.232 104.761 714.229 104.22 714.227 103.678 714.663 103.237 715.205 103.234 715.208 103.234 715.211 103.234 715.215 103.234 715.753 103.234 716.19 103.671 716.19 104.21" fill="#F9423A"/><path d="M754.261 104.21C754.264 106.368 752.517 108.119 750.359 108.122 748.201 108.125 746.449 106.378 746.446 104.22 746.443 102.062 748.191 100.31 750.349 100.307 750.35 100.307 750.352 100.307 750.354 100.307 752.51 100.307 754.258 102.054 754.261 104.21" fill="#F9423A"/><path d="M793.308 104.21C793.311 108.523 789.816 112.022 785.503 112.025 781.189 112.028 777.69 108.533 777.687 104.22 777.684 99.9063 781.179 96.4075 785.492 96.4044 785.494 96.4044 785.496 96.4044 785.497 96.4044 789.809 96.4044 793.305 99.8982 793.308 104.21" fill="#F9423A"/><path d="M824.544 104.21C824.547 106.368 822.799 108.119 820.641 108.122 818.483 108.125 816.732 106.378 816.729 104.22 816.726 102.062 818.473 100.31 820.631 100.307 820.635 100.307 820.638 100.307 820.641 100.307 822.797 100.307 824.544 102.054 824.544 104.21" fill="#F9423A"/><path d="M856.761 104.21C856.761 104.748 856.324 105.185 855.785 105.185 855.247 105.185 854.81 104.748 854.81 104.21 854.81 103.671 855.247 103.234 855.785 103.234 856.324 103.234 856.761 103.671 856.761 104.21" fill="#F9423A"/><path d="M645.903 139.354C645.903 139.892 645.466 140.329 644.927 140.329 644.388 140.329 643.951 139.892 643.951 139.354 643.951 138.815 644.388 138.378 644.927 138.378 645.466 138.378 645.903 138.815 645.903 139.354" fill="#F9423A"/><path d="M681.047 139.354C681.047 139.892 680.61 140.329 680.071 140.329 679.532 140.329 679.095 139.892 679.095 139.354 679.095 138.815 679.532 138.378 680.071 138.378 680.61 138.378 681.047 138.815 681.047 139.354" fill="#F9423A"/><path d="M751.354 139.354C751.354 139.892 750.917 140.329 750.379 140.329 749.84 140.329 749.403 139.892 749.403 139.354 749.403 138.815 749.84 138.378 750.379 138.378 750.917 138.378 751.354 138.815 751.354 139.354" fill="#F9423A"/><path d="M789.405 139.354C789.408 141.512 787.661 143.263 785.503 143.266 783.344 143.269 781.593 141.522 781.59 139.364 781.587 137.206 783.334 135.454 785.492 135.451 785.494 135.451 785.496 135.451 785.497 135.451 787.653 135.448 789.402 137.193 789.405 139.349 789.405 139.35 789.405 139.352 789.405 139.354" fill="#F9423A"/><path d="M821.617 139.354C821.617 139.892 821.18 140.329 820.641 140.329 820.103 140.329 819.666 139.892 819.666 139.354 819.666 138.815 820.103 138.378 820.641 138.378 821.18 138.378 821.617 138.815 821.617 139.354" fill="#F9423A"/><path d="M645.903 174.497C645.903 175.036 645.466 175.473 644.927 175.473 644.388 175.473 643.951 175.036 643.951 174.497 643.951 173.959 644.388 173.522 644.927 173.522 645.466 173.522 645.903 173.959 645.903 174.497" fill="#F9423A"/><path d="M786.473 174.497C786.473 175.036 786.036 175.473 785.497 175.473 784.959 175.473 784.522 175.036 784.522 174.497 784.522 173.959 784.959 173.522 785.497 173.522 786.036 173.522 786.473 173.959 786.473 174.497" fill="#F9423A"/><path d="M645.903 209.641C645.9 210.178 645.464 210.612 644.927 210.612 644.388 210.612 643.951 210.175 643.951 209.636 643.949 209.098 644.383 208.659 644.922 208.656 644.924 208.656 644.925 208.656 644.927 208.656 645.466 208.656 645.903 209.093 645.903 209.631 645.903 209.633 645.903 209.635 645.903 209.636" fill="#F9423A"/><path d="M681.047 209.641C681.044 210.18 680.605 210.615 680.066 210.612 679.527 210.609 679.092 210.17 679.095 209.631 679.098 209.094 679.534 208.661 680.071 208.661 680.61 208.661 681.047 209.098 681.047 209.636 681.047 209.638 681.047 209.64 681.047 209.641" fill="#F9423A"/><path d="M751.354 210.109C751.365 210.648 750.938 211.093 750.398 211.104 749.86 211.115 749.414 210.687 749.404 210.148 749.393 209.614 749.814 209.17 750.349 209.154 750.887 209.137 751.337 209.56 751.354 210.099 751.354 210.102 751.354 210.106 751.354 210.109" fill="#F9423A"/><path d="M821.617 209.641C821.614 210.18 821.175 210.615 820.636 210.612 820.098 210.609 819.663 210.17 819.666 209.631 819.669 209.094 820.104 208.661 820.641 208.661 821.18 208.661 821.617 209.098 821.617 209.636 821.617 209.638 821.617 209.64 821.617 209.641" fill="#F9423A"/><path d="M645.903 244.78C645.903 245.319 645.466 245.756 644.927 245.756 644.388 245.756 643.951 245.319 643.951 244.78 643.951 244.242 644.388 243.805 644.927 243.805 645.466 243.805 645.903 244.242 645.903 244.78" fill="#F9423A"/><path d="M682.998 244.78C682.998 246.397 681.687 247.707 680.071 247.707 678.454 247.707 677.144 246.397 677.144 244.78 677.144 243.164 678.454 241.853 680.071 241.853 681.686 241.856 682.995 243.165 682.998 244.78" fill="#F9423A"/><path d="M716.19 244.78C716.193 245.322 715.756 245.763 715.215 245.766 714.673 245.768 714.232 245.332 714.229 244.79 714.227 244.249 714.663 243.807 715.205 243.805 715.208 243.805 715.211 243.805 715.215 243.805 715.753 243.805 716.19 244.242 716.19 244.78" fill="#F9423A"/><path d="M856.761 244.78C856.761 245.319 856.324 245.756 855.785 245.756 855.247 245.756 854.81 245.319 854.81 244.78 854.81 244.242 855.247 243.805 855.785 243.805 856.324 243.805 856.761 244.242 856.761 244.78" fill="#F9423A"/><path d="M893.856 33.927C893.859 35.5464 892.549 36.861 890.929 36.864 889.31 36.867 887.995 35.5564 887.992 33.937 887.99 32.3176 889.3 31.003 890.919 31 890.921 31 890.923 31 890.924 31 892.542 31 893.853 32.3096 893.856 33.927" fill="#F9423A"/><path d="M896.783 69.0709C896.783 72.3066 894.16 74.9299 890.924 74.9299 887.688 74.9299 885.065 72.3066 885.065 69.0709 885.065 65.8351 887.688 63.2119 890.924 63.2119 894.157 63.2089 896.78 65.8276 896.783 69.0608 896.783 69.0643 896.783 69.0673 896.783 69.0709" fill="#F9423A"/><path d="M893.856 104.21C893.859 105.829 892.549 107.144 890.929 107.147 889.31 107.15 887.995 105.839 887.992 104.22 887.99 102.6 889.3 101.286 890.919 101.283 890.921 101.283 890.923 101.283 890.924 101.283 892.542 101.283 893.853 102.592 893.856 104.21" fill="#F9423A"/><path d="M891.9 139.354C891.9 139.892 891.463 140.329 890.924 140.329 890.385 140.329 889.948 139.892 889.948 139.354 889.948 138.815 890.385 138.378 890.924 138.378 891.463 138.378 891.9 138.815 891.9 139.354" fill="#F9423A"/><path d="M891.9 209.641C891.897 210.18 891.458 210.615 890.919 210.612 890.38 210.609 889.946 210.17 889.948 209.631 889.951 209.094 890.387 208.661 890.924 208.661 891.463 208.661 891.9 209.098 891.9 209.636 891.9 209.638 891.9 209.64 891.9 209.641" fill="#F9423A"/><path d="M893.856 244.78C893.859 246.4 892.549 247.714 890.929 247.717 889.31 247.72 887.995 246.41 887.992 244.79 887.99 243.171 889.3 241.856 890.919 241.853 890.921 241.853 890.923 241.853 890.924 241.853 892.542 241.853 893.853 243.163 893.856 244.78" fill="#F9423A"/><path d="M927.044 33.927C927.044 34.4656 926.607 34.9026 926.068 34.9026 925.529 34.9026 925.092 34.4656 925.092 33.927 925.092 33.3884 925.529 32.9513 926.068 32.9513 926.607 32.9513 927.044 33.3884 927.044 33.927" fill="#F9423A"/><path d="M928.995 69.0709C928.992 70.6872 927.679 71.9958 926.063 71.9928 924.447 71.9898 923.138 70.6772 923.141 69.0608 923.144 67.4464 924.454 66.1389 926.068 66.1389 927.684 66.1389 928.995 67.4495 928.995 69.0658 928.995 69.0673 928.995 69.0694 928.995 69.0709" fill="#F9423A"/><path d="M927.044 104.21C927.044 104.748 926.607 105.185 926.068 105.185 925.529 105.185 925.092 104.748 925.092 104.21 925.092 103.671 925.529 103.234 926.068 103.234 926.607 103.234 927.044 103.671 927.044 104.21" fill="#F9423A"/><path d="M927.044 139.354C927.044 139.892 926.607 140.329 926.068 140.329 925.529 140.329 925.092 139.892 925.092 139.354 925.092 138.815 925.529 138.378 926.068 138.378 926.607 138.378 927.044 138.815 927.044 139.354" fill="#F9423A"/><path d="M927.044 174.497C927.044 175.036 926.607 175.473 926.068 175.473 925.529 175.473 925.092 175.036 925.092 174.497 925.092 173.959 925.529 173.522 926.068 173.522 926.607 173.522 927.044 173.959 927.044 174.497" fill="#F9423A"/><path d="M927.044 209.641C927.041 210.18 926.602 210.615 926.063 210.612 925.524 210.609 925.09 210.17 925.092 209.631 925.095 209.094 925.531 208.661 926.068 208.661 926.607 208.661 927.044 209.098 927.044 209.636 927.044 209.638 927.044 209.64 927.044 209.641" fill="#F9423A"/><path d="M927.044 244.78C927.044 245.319 926.607 245.756 926.068 245.756 925.529 245.756 925.092 245.319 925.092 244.78 925.092 244.242 925.529 243.805 926.068 243.805 926.607 243.805 927.044 244.242 927.044 244.78" fill="#F9423A"/><path d="M647.854 279.924C647.857 281.538 646.551 282.848 644.937 282.851 644.934 282.851 644.93 282.851 644.927 282.851 643.313 282.854 642.003 281.548 642 279.934 642 279.931 642 279.928 642 279.924 641.997 278.31 643.303 277 644.917 276.997 644.92 276.997 644.924 276.997 644.927 276.997 646.541 276.994 647.851 278.3 647.854 279.914 647.854 279.918 647.854 279.921 647.854 279.924" fill="#F9423A"/><path d="M685.925 279.924C685.925 283.16 683.302 285.783 680.066 285.783 676.83 285.783 674.207 283.16 674.207 279.924 674.207 276.688 676.83 274.065 680.066 274.065 680.068 274.065 680.069 274.065 680.071 274.065 683.305 274.068 685.925 276.69 685.925 279.924" fill="#F9423A"/><path d="M718.162 279.924C718.165 281.543 716.854 282.858 715.235 282.861 713.615 282.864 712.301 281.554 712.298 279.934 712.295 278.315 713.605 277 715.225 276.997 715.228 276.997 715.231 276.997 715.235 276.997 716.851 276.997 718.162 278.308 718.162 279.924" fill="#F9423A"/><path d="M751.354 279.924C751.354 280.463 750.917 280.9 750.379 280.9 749.84 280.9 749.403 280.463 749.403 279.924 749.403 279.385 749.84 278.948 750.379 278.948 750.917 278.948 751.354 279.385 751.354 279.924" fill="#F9423A"/><path d="M821.617 279.924C821.617 280.463 821.18 280.9 820.641 280.9 820.103 280.9 819.666 280.463 819.666 279.924 819.666 279.385 820.103 278.948 820.641 278.948 821.18 278.948 821.617 279.385 821.617 279.924" fill="#F9423A"/><path d="M858.712 279.924C858.715 281.543 857.405 282.858 855.785 282.861 854.166 282.864 852.851 281.554 852.848 279.934 852.845 278.315 854.156 277 855.775 276.997 855.779 276.997 855.782 276.997 855.785 276.997 857.402 276.997 858.712 278.308 858.712 279.924" fill="#F9423A"/><path d="M896.783 279.924C896.783 283.16 894.16 285.783 890.924 285.783 887.688 285.783 885.065 283.16 885.065 279.924 885.065 276.688 887.688 274.065 890.924 274.065 894.16 274.065 896.783 276.688 896.783 279.924" fill="#F9423A"/><path d="M928.995 279.924C928.995 281.54 927.684 282.851 926.068 282.851 924.452 282.851 923.141 281.54 923.141 279.924 923.141 278.308 924.452 276.997 926.068 276.997 927.682 276.994 928.992 278.3 928.995 279.914 928.995 279.918 928.995 279.921 928.995 279.924" fill="#F9423A"/><path d="M645.903 315.068C645.903 315.607 645.466 316.044 644.927 316.044 644.388 316.044 643.951 315.607 643.951 315.068 643.951 314.529 644.388 314.092 644.927 314.092 645.466 314.092 645.903 314.529 645.903 315.068" fill="#F9423A"/><path d="M682.998 315.068C682.998 316.684 681.687 317.995 680.071 317.995 678.454 317.995 677.144 316.684 677.144 315.068 677.144 313.452 678.454 312.141 680.071 312.141 681.686 312.144 682.995 313.453 682.998 315.068" fill="#F9423A"/><path d="M716.19 315.068C716.193 315.61 715.756 316.051 715.215 316.054 714.673 316.056 714.232 315.62 714.229 315.078 714.227 314.536 714.663 314.095 715.205 314.092 715.208 314.092 715.211 314.092 715.215 314.092 715.753 314.092 716.19 314.529 716.19 315.068" fill="#F9423A"/><path d="M751.354 315.556C751.354 316.094 750.917 316.531 750.379 316.531 749.84 316.531 749.403 316.094 749.403 315.556 749.403 315.017 749.84 314.58 750.379 314.58 750.917 314.58 751.354 315.017 751.354 315.556" fill="#F9423A"/><path d="M786.473 315.068C786.473 315.607 786.036 316.044 785.497 316.044 784.959 316.044 784.522 315.607 784.522 315.068 784.522 314.529 784.959 314.092 785.497 314.092 786.036 314.092 786.473 314.529 786.473 315.068" fill="#F9423A"/><path d="M821.617 315.068C821.617 315.607 821.18 316.044 820.641 316.044 820.103 316.044 819.666 315.607 819.666 315.068 819.666 314.529 820.103 314.092 820.641 314.092 821.18 314.092 821.617 314.529 821.617 315.068" fill="#F9423A"/><path d="M856.761 315.068C856.761 315.607 856.324 316.044 855.785 316.044 855.247 316.044 854.81 315.607 854.81 315.068 854.81 314.529 855.247 314.092 855.785 314.092 856.324 314.092 856.761 314.529 856.761 315.068" fill="#F9423A"/><path d="M893.856 315.068C893.859 316.687 892.549 318.002 890.929 318.005 889.31 318.008 887.995 316.697 887.992 315.078 887.99 313.459 889.3 312.144 890.919 312.141 890.921 312.141 890.923 312.141 890.924 312.141 892.542 312.141 893.853 313.451 893.856 315.068" fill="#F9423A"/><path d="M927.044 315.068C927.044 315.607 926.607 316.044 926.068 316.044 925.529 316.044 925.092 315.607 925.092 315.068 925.092 314.529 925.529 314.092 926.068 314.092 926.607 314.092 927.044 314.529 927.044 315.068" fill="#F9423A"/><path d="M719.117 140.088C719.117 142.246 717.368 143.996 715.21 143.996 713.052 143.996 711.302 142.246 711.302 140.088 711.302 137.93 713.052 136.18 715.21 136.18 715.211 136.18 715.213 136.18 715.215 136.18 717.371 136.183 719.117 137.932 719.117 140.088" fill="#F9423A"/><path d="M683.963 174.739C683.966 176.897 682.219 178.649 680.061 178.652 677.903 178.655 676.151 176.907 676.148 174.749 676.145 172.591 677.893 170.839 680.051 170.836 680.054 170.836 680.057 170.836 680.061 170.836 682.216 170.836 683.963 172.583 683.963 174.739" fill="#F9423A"/><path d="M723.02 174.739C723.023 179.052 719.528 182.551 715.215 182.554 710.901 182.557 707.402 179.062 707.399 174.749 707.396 170.435 710.891 166.937 715.205 166.934 715.208 166.934 715.211 166.934 715.215 166.934 719.525 166.934 723.02 170.428 723.02 174.739" fill="#F9423A"/><path d="M754.261 174.739C754.264 176.897 752.517 178.649 750.359 178.652 748.201 178.655 746.449 176.907 746.446 174.749 746.443 172.591 748.191 170.839 750.349 170.836 750.35 170.836 750.352 170.836 750.354 170.836 752.51 170.836 754.258 172.583 754.261 174.739" fill="#F9423A"/><path d="M719.117 209.883C719.12 212.041 717.373 213.792 715.215 213.795 713.057 213.798 711.305 212.051 711.302 209.893 711.299 207.735 713.047 205.983 715.205 205.98 715.208 205.98 715.211 205.98 715.215 205.98 717.369 205.983 719.114 207.729 719.117 209.883" fill="#F9423A"/><path d="M859.688 140.088C859.688 142.246 857.938 143.996 855.78 143.996 853.622 143.996 851.873 142.246 851.873 140.088 851.873 137.93 853.622 136.18 855.78 136.18 855.782 136.18 855.784 136.18 855.785 136.18 857.941 136.183 859.688 137.932 859.688 140.088" fill="#F9423A"/><path d="M824.544 174.739C824.547 176.897 822.799 178.649 820.641 178.652 818.483 178.655 816.732 176.907 816.729 174.749 816.726 172.591 818.473 170.839 820.631 170.836 820.635 170.836 820.638 170.836 820.641 170.836 822.797 170.836 824.544 172.583 824.544 174.739" fill="#F9423A"/><path d="M863.591 174.739C863.594 179.052 860.099 182.551 855.785 182.554 851.472 182.557 847.973 179.062 847.97 174.749 847.967 170.435 851.462 166.937 855.775 166.934 855.779 166.934 855.782 166.934 855.785 166.934 860.096 166.934 863.591 170.428 863.591 174.739" fill="#F9423A"/><path d="M894.832 174.739C894.835 176.897 893.087 178.649 890.929 178.652 888.771 178.655 887.019 176.907 887.016 174.749 887.014 172.591 888.761 170.839 890.919 170.836 890.921 170.836 890.923 170.836 890.924 170.836 893.08 170.836 894.829 172.583 894.832 174.739" fill="#F9423A"/><path d="M859.688 209.883C859.691 212.041 857.943 213.792 855.785 213.795 853.627 213.798 851.876 212.051 851.873 209.893 851.87 207.735 853.617 205.983 855.775 205.98 855.779 205.98 855.782 205.98 855.785 205.98 857.939 205.983 859.685 207.729 859.688 209.883" fill="#F9423A"/><path d="M789.405 209.154C789.405 211.312 787.656 213.061 785.497 213.061 783.339 213.061 781.59 211.312 781.59 209.154 781.59 206.996 783.339 205.246 785.497 205.246 787.656 205.246 789.405 206.996 789.405 209.154" fill="#F9423A"/><path d="M754.261 244.78C754.264 246.938 752.517 248.69 750.359 248.693 748.201 248.695 746.449 246.948 746.446 244.79 746.443 242.632 748.191 240.88 750.349 240.878 750.35 240.878 750.352 240.878 750.354 240.878 752.51 240.878 754.258 242.624 754.261 244.78" fill="#F9423A"/><path d="M793.308 244.78C793.311 249.094 789.816 252.593 785.503 252.596 781.189 252.598 777.69 249.104 777.687 244.79 777.684 240.477 781.179 236.977 785.492 236.975 785.494 236.975 785.496 236.975 785.497 236.975 789.809 236.975 793.305 240.469 793.308 244.78" fill="#F9423A"/><path d="M824.544 244.78C824.547 246.938 822.799 248.69 820.641 248.693 818.483 248.695 816.732 246.948 816.729 244.79 816.726 242.632 818.473 240.88 820.631 240.878 820.635 240.878 820.638 240.878 820.641 240.878 822.797 240.878 824.544 242.625 824.544 244.78" fill="#F9423A"/><path d="M789.405 279.924C789.408 282.082 787.661 283.834 785.503 283.837 783.344 283.839 781.593 282.092 781.59 279.934 781.587 277.776 783.334 276.024 785.492 276.021 785.494 276.021 785.496 276.021 785.497 276.021 787.653 276.019 789.402 277.764 789.405 279.919 789.405 279.921 789.405 279.923 789.405 279.924" fill="#F9423A"/></g></svg>