<svg width="665" height="647" xmlns="http://www.w3.org/2000/svg" xmlns:xlink="http://www.w3.org/1999/xlink" overflow="hidden"><defs><clipPath id="clip0"><rect x="1357" y="109" width="665" height="647"/></clipPath></defs><g clip-path="url(#clip0)" transform="translate(-1357 -109)"><path d="M2013.07 747.422C2015.56 747.488 2017.53 749.461 2017.46 751.829 2017.39 754.151 2015.39 755.998 2012.94 756 2010.42 755.973 2008.39 754.007 2008.42 751.609 2008.42 751.604 2008.42 751.597 2008.42 751.592 2008.49 749.224 2010.57 747.356 2013.07 747.422ZM2013.17 637.46C2018.17 637.58 2022.12 641.527 2022 646.272 2021.87 650.932 2017.86 654.648 2012.94 654.649 2007.88 654.594 2003.83 650.655 2003.88 645.852 2003.88 645.845 2003.88 645.84 2003.88 645.834 2004.01 641.088 2008.17 637.338 2013.17 637.46ZM1904.72 633.272C1912.21 633.449 1918.14 639.36 1917.95 646.476 1917.77 653.471 1911.74 659.048 1904.37 659.041 1896.78 658.948 1890.71 653.037 1890.81 645.836 1890.81 645.836 1890.81 645.834 1890.81 645.834 1890.99 638.718 1897.22 633.094 1904.72 633.272ZM2013.07 535.972C2015.56 536.038 2017.53 538.011 2017.46 540.378 2017.39 542.701 2015.39 544.548 2012.94 544.55 2010.43 544.532 2008.4 542.581 2008.42 540.194 2008.42 540.176 2008.42 540.159 2008.42 540.142 2008.49 537.774 2010.57 535.906 2013.07 535.972ZM1795.91 535.939C1798.42 535.994 1800.4 537.967 1800.34 540.345 1800.29 542.689 1798.26 544.559 1795.79 544.55 1793.27 544.523 1791.24 542.557 1791.27 540.159 1791.27 540.154 1791.27 540.147 1791.27 540.142 1791.33 537.764 1793.41 535.883 1795.91 535.939ZM1904.61 531.769C1909.61 531.888 1913.56 535.835 1913.44 540.581 1913.31 545.247 1909.29 548.966 1904.37 548.958 1899.31 548.902 1895.27 544.972 1895.33 540.177 1895.33 540.166 1895.33 540.154 1895.33 540.142 1895.45 535.396 1899.61 531.647 1904.61 531.769ZM1687.46 531.769C1692.46 531.888 1696.41 535.835 1696.28 540.581 1696.16 545.241 1692.14 548.957 1687.23 548.958 1682.17 548.902 1678.11 544.964 1678.17 540.16 1678.17 540.154 1678.17 540.149 1678.17 540.142 1678.3 535.396 1682.46 531.647 1687.46 531.769ZM2013.07 430.281C2015.56 430.347 2017.53 432.32 2017.46 434.687 2017.39 437.01 2015.39 438.857 2012.94 438.859 2010.43 438.841 2008.4 436.89 2008.42 434.503 2008.42 434.485 2008.42 434.468 2008.42 434.451 2008.49 432.083 2010.57 430.215 2013.07 430.281ZM1904.49 430.281C1906.98 430.347 1908.95 432.32 1908.88 434.687 1908.82 437.01 1906.81 438.857 1904.37 438.859 1901.84 438.832 1899.82 436.866 1899.85 434.468 1899.85 434.463 1899.85 434.458 1899.85 434.451 1899.92 432.083 1901.99 430.215 1904.49 430.281ZM1796.04 426.078C1801.04 426.197 1804.99 430.144 1804.86 434.89 1804.73 439.556 1800.71 443.275 1795.79 443.267 1790.73 443.203 1786.68 439.256 1786.75 434.452 1786.75 434.452 1786.75 434.451 1786.75 434.451 1786.88 429.705 1791.03 425.956 1796.04 426.078ZM1578.88 425.874C1583.89 425.987 1587.84 429.926 1587.73 434.672 1587.61 439.338 1583.59 443.064 1578.67 443.065 1573.62 443.001 1569.56 439.066 1569.61 434.267 1569.73 429.521 1573.88 425.763 1578.88 425.874ZM1687.58 421.907C1695.08 422.093 1701 428.013 1700.8 435.126 1700.61 442.108 1694.59 447.673 1687.23 447.675 1679.63 447.582 1673.55 441.662 1673.65 434.452 1673.65 434.452 1673.65 434.451 1673.65 434.451 1673.85 427.337 1680.09 421.72 1687.58 421.907ZM2013.05 324.59C2015.55 324.646 2017.52 326.612 2017.46 328.98 2017.4 331.309 2015.4 333.168 2012.94 333.168 2010.42 333.141 2008.39 331.175 2008.42 328.777 2008.48 326.409 2010.55 324.534 2013.05 324.59ZM1578.76 324.59C1581.26 324.646 1583.23 326.612 1583.17 328.98 1583.11 331.309 1581.11 333.168 1578.66 333.168 1576.13 333.131 1574.12 331.17 1574.14 328.777 1574.19 326.409 1576.27 324.534 1578.76 324.59ZM1795.9 324.557C1798.4 324.602 1800.39 326.568 1800.34 328.946 1800.3 331.297 1798.27 333.176 1795.79 333.168 1793.27 333.131 1791.25 331.17 1791.27 328.777 1791.32 326.399 1793.39 324.509 1795.9 324.557ZM1904.6 320.385C1909.6 320.498 1913.55 324.437 1913.44 329.182 1913.32 333.855 1909.29 337.584 1904.37 337.576 1899.31 337.512 1895.27 333.574 1895.33 328.777 1895.44 324.031 1899.59 320.273 1904.6 320.385ZM1687.44 320.384C1692.44 320.498 1696.4 324.436 1696.28 329.182 1696.17 333.849 1692.15 337.575 1687.23 337.576 1682.17 337.512 1678.12 333.577 1678.17 328.777 1678.29 324.031 1682.44 320.273 1687.44 320.384ZM1687.34 218.899C1689.83 218.954 1691.81 220.92 1691.75 223.288 1691.69 225.617 1689.69 227.477 1687.23 227.477 1684.71 227.449 1682.68 225.484 1682.71 223.086 1682.77 220.718 1684.84 218.843 1687.34 218.899ZM1578.88 214.729C1583.88 214.849 1587.82 218.788 1587.69 223.525 1587.56 228.174 1583.56 231.883 1578.66 231.884 1573.6 231.82 1569.56 227.884 1569.61 223.086 1569.74 218.348 1573.89 214.607 1578.88 214.729ZM2013.16 214.693C2018.16 214.807 2022.11 218.745 2022 223.491 2021.88 228.157 2017.86 231.884 2012.94 231.885 2007.89 231.821 2003.83 227.886 2003.88 223.086 2004 218.34 2008.15 214.582 2013.16 214.693ZM1796.02 214.693C1801.02 214.807 1804.98 218.745 1804.86 223.491 1804.75 228.164 1800.72 231.893 1795.79 231.885 1790.74 231.811 1786.7 227.879 1786.75 223.086 1786.87 218.34 1791.02 214.582 1796.02 214.693ZM1904.72 210.524C1912.21 210.701 1918.14 216.612 1917.95 223.727 1917.77 230.723 1911.74 236.3 1904.37 236.293 1896.78 236.191 1890.72 230.284 1890.81 223.086 1890.99 215.97 1897.22 210.346 1904.72 210.524ZM1470.43 210.524C1477.93 210.701 1483.85 216.612 1483.67 223.727 1483.48 230.723 1477.45 236.3 1470.08 236.293 1462.5 236.191 1456.43 230.284 1456.52 223.086 1456.7 215.97 1462.93 210.346 1470.43 210.524ZM2013.05 113.208C2015.55 113.263 2017.52 115.23 2017.46 117.597 2017.4 119.926 2015.4 121.785 2012.94 121.785 2010.42 121.759 2008.39 119.793 2008.42 117.395 2008.48 115.027 2010.55 113.152 2013.05 113.208ZM1687.34 113.208C1689.83 113.263 1691.81 115.229 1691.75 117.597 1691.69 119.926 1689.69 121.785 1687.23 121.785 1684.71 121.759 1682.68 119.793 1682.71 117.395 1682.77 115.027 1684.84 113.152 1687.34 113.208ZM1578.76 113.208C1581.26 113.263 1583.23 115.229 1583.17 117.597 1583.11 119.926 1581.11 121.785 1578.66 121.785 1576.13 121.748 1574.12 119.788 1574.14 117.395 1574.19 115.027 1576.27 113.152 1578.76 113.208ZM1361.63 113.208C1364.12 113.263 1366.1 115.229 1366.04 117.597 1365.98 119.926 1363.97 121.785 1361.52 121.785 1359 121.759 1356.97 119.793 1357 117.395 1357.06 115.027 1359.13 113.152 1361.63 113.208ZM1795.9 113.174C1798.4 113.22 1800.39 115.186 1800.34 117.563 1800.3 119.914 1798.27 121.794 1795.79 121.786 1793.27 121.749 1791.25 119.788 1791.27 117.395 1791.32 115.016 1793.39 113.127 1795.9 113.174ZM1470.31 109.003C1475.31 109.116 1479.27 113.054 1479.15 117.8 1479.03 122.473 1475.01 126.202 1470.08 126.194 1465.03 126.119 1460.99 122.188 1461.04 117.394 1461.16 112.649 1465.31 108.891 1470.31 109.003ZM1904.6 109.002C1909.6 109.115 1913.56 113.054 1913.44 117.8 1913.32 122.473 1909.29 126.202 1904.37 126.194 1899.31 126.129 1895.27 122.191 1895.33 117.394 1895.44 112.648 1899.59 108.891 1904.6 109.002Z" fill="#F9423A" fill-rule="evenodd"/></g></svg>
