<svg width="193" height="188" xmlns="http://www.w3.org/2000/svg" xmlns:xlink="http://www.w3.org/1999/xlink" overflow="hidden"><defs><clipPath id="clip0"><rect x="737" y="320" width="193" height="188"/></clipPath></defs><g clip-path="url(#clip0)" transform="translate(-737 -320)"><path d="M54.7486 301.212C55.4528 301.232 56.0083 301.819 55.9887 302.523 55.9691 303.227 55.3824 303.783 54.6782 303.763 53.9876 303.744 53.4381 303.179 53.4376 302.488 53.4456 301.776 54.0303 301.204 54.7435 301.212 54.745 301.212 54.7471 301.212 54.7486 301.212" fill="#F9423A" transform="matrix(1.00247 0 0 1 683.41 202.799)"/><path d="M86.2014 299.932C87.6128 299.968 88.7278 301.141 88.6917 302.553 88.656 303.965 87.4822 305.079 86.0708 305.043 84.685 305.008 83.58 303.875 83.5794 302.488 83.596 301.06 84.7673 299.915 86.1958 299.932 86.1978 299.932 86.1993 299.932 86.2014 299.932" fill="#F9423A" transform="matrix(1.00247 0 0 1 683.41 202.799)"/><path d="M86.2014 268.017C88.3175 268.07 89.9901 269.828 89.9373 271.944 89.8846 274.059 88.1266 275.732 86.0105 275.679 83.93 275.627 82.2715 273.925 82.2735 271.844 82.3011 269.703 84.0591 267.989 86.2009 268.017 86.2009 268.017 86.2014 268.017 86.2014 268.017" fill="#F9423A" transform="matrix(1.00247 0 0 1 683.41 202.799)"/><path d="M117.634 301.212C118.338 301.232 118.894 301.819 118.874 302.523 118.855 303.227 118.268 303.783 117.564 303.763 116.873 303.744 116.324 303.179 116.323 302.488 116.329 301.778 116.909 301.207 117.618 301.212 117.624 301.212 117.629 301.212 117.634 301.212" fill="#F9423A" transform="matrix(1.00247 0 0 1 683.41 202.799)"/><path d="M117.634 269.293C119.045 269.329 120.161 270.502 120.124 271.913 120.089 273.325 118.915 274.44 117.503 274.404 116.116 274.369 115.01 273.232 115.012 271.844 115.029 270.418 116.198 269.276 117.624 269.293 117.627 269.293 117.631 269.293 117.634 269.293" fill="#F9423A" transform="matrix(1.00247 0 0 1 683.41 202.799)"/><path d="M117.634 239.924C118.341 239.941 118.901 240.527 118.884 241.235 118.868 241.942 118.281 242.502 117.574 242.485 116.877 242.469 116.321 241.898 116.323 241.2 116.331 240.487 116.916 239.916 117.629 239.924 117.631 239.924 117.633 239.924 117.634 239.924" fill="#F9423A" transform="matrix(1.00247 0 0 1 683.41 202.799)"/><path d="M117.634 208.004C119.045 208.04 120.161 209.214 120.124 210.625 120.089 212.037 118.915 213.152 117.503 213.116 116.118 213.08 115.013 211.947 115.012 210.561 115.029 209.132 116.2 207.988 117.629 208.004 117.631 208.004 117.632 208.004 117.634 208.004" fill="#F9423A" transform="matrix(1.00247 0 0 1 683.41 202.799)"/><path d="M149.067 301.212C149.771 301.232 150.326 301.819 150.307 302.523 150.287 303.227 149.701 303.783 148.996 303.763 148.306 303.744 147.756 303.179 147.756 302.488 147.761 301.778 148.341 301.207 149.051 301.212 149.057 301.212 149.062 301.212 149.067 301.212" fill="#F9423A" transform="matrix(1.00247 0 0 1 683.41 202.799)"/><path d="M149.067 270.568C149.771 270.588 150.326 271.175 150.307 271.879 150.287 272.583 149.701 273.139 148.996 273.119 148.306 273.1 147.756 272.535 147.756 271.844 147.764 271.131 148.349 270.56 149.062 270.568 149.063 270.568 149.065 270.568 149.067 270.568" fill="#F9423A" transform="matrix(1.00247 0 0 1 683.41 202.799)"/><path d="M149.067 238.648C150.478 238.685 151.593 239.858 151.557 241.269 151.521 242.681 150.348 243.796 148.936 243.76 147.548 243.725 146.442 242.588 146.445 241.2 146.464 239.772 147.638 238.629 149.066 238.648 149.066 238.648 149.067 238.648 149.067 238.648" fill="#F9423A" transform="matrix(1.00247 0 0 1 683.41 202.799)"/><path d="M149.067 206.729C151.182 206.784 152.853 208.544 152.797 210.66 152.742 212.776 150.981 214.446 148.866 214.391 146.789 214.336 145.134 212.638 145.134 210.561 145.162 208.417 146.922 206.701 149.066 206.729 149.066 206.729 149.067 206.729 149.067 206.729" fill="#F9423A" transform="matrix(1.00247 0 0 1 683.41 202.799)"/><path d="M180.494 301.212C181.199 301.229 181.756 301.814 181.74 302.518 181.723 303.223 181.138 303.78 180.434 303.764 179.742 303.747 179.189 303.181 179.189 302.488 179.197 301.776 179.781 301.204 180.494 301.212 180.494 301.212 180.494 301.212 180.494 301.212" fill="#F9423A" transform="matrix(1.00247 0 0 1 683.41 202.799)"/><path d="M180.494 269.293C181.906 269.326 183.023 270.497 182.99 271.909 182.957 273.32 181.785 274.437 180.374 274.404 178.984 274.372 177.875 273.234 177.878 271.844 177.897 270.418 179.068 269.276 180.494 269.293" fill="#F9423A" transform="matrix(1.00247 0 0 1 683.41 202.799)"/><path d="M180.494 239.924C181.202 239.938 181.764 240.522 181.75 241.23 181.736 241.937 181.151 242.499 180.444 242.485 179.745 242.472 179.186 241.9 179.189 241.2 179.2 240.488 179.783 239.919 180.494 239.924" fill="#F9423A" transform="matrix(1.00247 0 0 1 683.41 202.799)"/><path d="M180.494 208.004C181.906 208.037 183.023 209.209 182.99 210.621 182.957 212.032 181.785 213.149 180.374 213.116 178.986 213.083 177.878 211.949 177.878 210.561 177.897 209.133 179.067 207.99 180.494 208.004" fill="#F9423A" transform="matrix(1.00247 0 0 1 683.41 202.799)"/><path d="M180.494 178.641C181.199 178.658 181.756 179.242 181.74 179.946 181.723 180.651 181.138 181.209 180.434 181.192 179.742 181.176 179.189 180.609 179.189 179.917 179.2 179.205 179.783 178.635 180.494 178.641" fill="#F9423A" transform="matrix(1.00247 0 0 1 683.41 202.799)"/><path d="M211.927 299.932C213.339 299.965 214.456 301.136 214.423 302.548 214.389 303.959 213.218 305.077 211.807 305.043 210.419 305.011 209.311 303.877 209.31 302.488 209.329 301.061 210.5 299.918 211.927 299.932" fill="#F9423A" transform="matrix(1.00247 0 0 1 683.41 202.799)"/><path d="M211.927 268.017C214.043 268.07 215.716 269.828 215.663 271.944 215.61 274.059 213.852 275.732 211.736 275.679 209.656 275.627 207.997 273.925 207.999 271.844 208.029 269.704 209.786 267.992 211.927 268.017" fill="#F9423A" transform="matrix(1.00247 0 0 1 683.41 202.799)"/><path d="M211.927 238.648C213.339 238.682 214.456 239.853 214.423 241.265 214.389 242.676 213.218 243.793 211.807 243.76 210.417 243.728 209.308 242.59 209.31 241.2 209.332 239.775 210.502 238.634 211.927 238.648" fill="#F9423A" transform="matrix(1.00247 0 0 1 683.41 202.799)"/><path d="M211.927 209.285C212.631 209.302 213.189 209.886 213.172 210.591 213.156 211.295 212.571 211.853 211.867 211.836 211.174 211.82 210.621 211.254 210.621 210.561 210.629 209.848 211.214 209.277 211.927 209.285 211.927 209.285 211.927 209.285 211.927 209.285" fill="#F9423A" transform="matrix(1.00247 0 0 1 683.41 202.799)"/><path d="M211.927 177.365C213.336 177.401 214.449 178.573 214.412 179.981 214.377 181.39 213.205 182.503 211.797 182.467 210.414 182.431 209.311 181.3 209.31 179.917 209.329 178.49 210.5 177.349 211.927 177.365" fill="#F9423A" transform="matrix(1.00247 0 0 1 683.41 202.799)"/><path d="M211.927 145.445C214.043 145.498 215.716 147.256 215.663 149.372 215.61 151.488 213.852 153.16 211.736 153.108 209.656 153.056 207.997 151.354 207.999 149.273 208.029 147.132 209.786 145.42 211.927 145.445" fill="#F9423A" transform="matrix(1.00247 0 0 1 683.41 202.799)"/><path d="M243.36 301.212C244.064 301.229 244.622 301.814 244.605 302.518 244.588 303.223 244.004 303.78 243.3 303.764 242.607 303.747 242.054 303.181 242.054 302.488 242.062 301.776 242.647 301.204 243.36 301.212 243.36 301.212 243.36 301.212 243.36 301.212" fill="#F9423A" transform="matrix(1.00247 0 0 1 683.41 202.799)"/><path d="M243.36 269.293C244.771 269.326 245.889 270.497 245.856 271.909 245.822 273.32 244.651 274.437 243.239 274.404 241.849 274.372 240.74 273.234 240.743 271.844 240.762 270.418 241.933 269.276 243.36 269.293" fill="#F9423A" transform="matrix(1.00247 0 0 1 683.41 202.799)"/><path d="M243.36 239.924C244.067 239.938 244.629 240.522 244.615 241.23 244.601 241.937 244.017 242.499 243.31 242.485 242.61 242.472 242.051 241.9 242.054 241.2 242.065 240.488 242.648 239.919 243.36 239.924" fill="#F9423A" transform="matrix(1.00247 0 0 1 683.41 202.799)"/><path d="M243.36 209.285C244.064 209.302 244.622 209.886 244.605 210.591 244.588 211.295 244.004 211.853 243.3 211.836 242.607 211.82 242.054 211.254 242.054 210.561 242.062 209.848 242.647 209.277 243.36 209.285 243.36 209.285 243.36 209.285 243.36 209.285" fill="#F9423A" transform="matrix(1.00247 0 0 1 683.41 202.799)"/><path d="M243.36 178.641C244.064 178.658 244.622 179.242 244.605 179.946 244.588 180.651 244.004 181.209 243.3 181.192 242.607 181.176 242.054 180.609 242.054 179.917 242.065 179.205 242.648 178.635 243.36 178.641" fill="#F9423A" transform="matrix(1.00247 0 0 1 683.41 202.799)"/><path d="M243.36 146.721C244.771 146.754 245.889 147.926 245.856 149.337 245.822 150.749 244.651 151.866 243.239 151.833 241.849 151.8 240.74 150.663 240.743 149.273 240.765 147.847 241.934 146.707 243.36 146.721" fill="#F9423A" transform="matrix(1.00247 0 0 1 683.41 202.799)"/><path d="M243.36 117.358C244.064 117.374 244.622 117.959 244.605 118.663 244.588 119.368 244.004 119.925 243.3 119.909 242.607 119.892 242.054 119.326 242.054 118.634 242.062 117.921 242.647 117.35 243.36 117.358 243.36 117.358 243.36 117.358 243.36 117.358" fill="#F9423A" transform="matrix(1.00247 0 0 1 683.41 202.799)"/></g></svg>