<svg xmlns="http://www.w3.org/2000/svg" width="648" height="512">
    <style>
        line, path, circle, rect, polygon{stroke:black;stroke-width:1;stroke-opacity:1;fill-opacity:1;stroke-linecap:round;stroke-linejoin:miter;}text{font-family:Iosevka Fixed, monospace;font-size:14px;}rect.backdrop{stroke:none;fill:white;}.broken{stroke-dasharray:8;}.filled{fill:black;}.bg_filled{fill:white;}.nofill{fill:white;}.end_marked_arrow{marker-end:url(#arrow);}.start_marked_arrow{marker-start:url(#arrow);}.end_marked_diamond{marker-end:url(#diamond);}.start_marked_diamond{marker-start:url(#diamond);}.end_marked_circle{marker-end:url(#circle);}.start_marked_circle{marker-start:url(#circle);}.end_marked_open_circle{marker-end:url(#open_circle);}.start_marked_open_circle{marker-start:url(#open_circle);}.end_marked_big_open_circle{marker-end:url(#big_open_circle);}.start_marked_big_open_circle{marker-start:url(#big_open_circle);}
        <!--separator-->
        
    </style>
    <defs>
        <marker id="arrow" viewBox="-2 -2 8 8" refX="4" refY="2" markerWidth="7" markerHeight="7" orient="auto-start-reverse">
            <polygon points="0,0 0,4 4,2 0,0"></polygon>
        </marker>
        <marker id="diamond" viewBox="-2 -2 8 8" refX="4" refY="2" markerWidth="7" markerHeight="7" orient="auto-start-reverse">
            <polygon points="0,2 2,0 4,2 2,4 0,2"></polygon>
        </marker>
        <marker id="circle" viewBox="0 0 8 8" refX="4" refY="4" markerWidth="7" markerHeight="7" orient="auto-start-reverse">
            <circle cx="4" cy="4" r="2" class="filled"></circle>
        </marker>
        <marker id="open_circle" viewBox="0 0 8 8" refX="4" refY="4" markerWidth="7" markerHeight="7" orient="auto-start-reverse">
            <circle cx="4" cy="4" r="2" class="bg_filled"></circle>
        </marker>
        <marker id="big_open_circle" viewBox="0 0 8 8" refX="4" refY="4" markerWidth="7" markerHeight="7" orient="auto-start-reverse">
            <circle cx="4" cy="4" r="3" class="bg_filled"></circle>
        </marker>
    </defs>
    <rect class="backdrop" x="0" y="0" width="648" height="512"></rect>
    <line x1="120" y1="296" x2="144" y2="296" class="solid"></line>
    <line x1="488" y1="296" x2="512" y2="296" class="solid"></line>
    <text x="250" y="284" >userspace</text>
    <line x1="232" y1="296" x2="240" y2="296" class="solid"></line>
    <line x1="248" y1="296" x2="256" y2="296" class="solid"></line>
    <line x1="264" y1="296" x2="272" y2="296" class="solid"></line>
    <line x1="280" y1="296" x2="288" y2="296" class="solid"></line>
    <line x1="296" y1="296" x2="304" y2="296" class="solid"></line>
    <line x1="312" y1="296" x2="320" y2="296" class="solid"></line>
    <line x1="328" y1="296" x2="336" y2="296" class="solid"></line>
    <text x="242" y="316" >kernelspace</text>
    <line x1="8" y1="296" x2="16" y2="296" class="solid"></line>
    <line x1="24" y1="296" x2="32" y2="296" class="solid"></line>
    <line x1="40" y1="296" x2="48" y2="296" class="solid"></line>
    <line x1="56" y1="296" x2="64" y2="296" class="solid"></line>
    <line x1="72" y1="296" x2="80" y2="296" class="solid"></line>
    <line x1="88" y1="296" x2="96" y2="296" class="solid"></line>
    <line x1="104" y1="296" x2="112" y2="296" class="solid"></line>
    <line x1="152" y1="296" x2="160" y2="296" class="solid"></line>
    <line x1="168" y1="296" x2="176" y2="296" class="solid"></line>
    <line x1="184" y1="296" x2="192" y2="296" class="solid"></line>
    <line x1="200" y1="296" x2="208" y2="296" class="solid"></line>
    <line x1="216" y1="296" x2="224" y2="296" class="solid"></line>
    <line x1="344" y1="296" x2="352" y2="296" class="solid"></line>
    <line x1="360" y1="296" x2="368" y2="296" class="solid"></line>
    <line x1="376" y1="296" x2="384" y2="296" class="solid"></line>
    <line x1="392" y1="296" x2="400" y2="296" class="solid"></line>
    <line x1="408" y1="296" x2="416" y2="296" class="solid"></line>
    <line x1="424" y1="296" x2="432" y2="296" class="solid"></line>
    <line x1="440" y1="296" x2="448" y2="296" class="solid"></line>
    <line x1="456" y1="296" x2="464" y2="296" class="solid"></line>
    <line x1="472" y1="296" x2="480" y2="296" class="solid"></line>
    <line x1="520" y1="296" x2="528" y2="296" class="solid"></line>
    <line x1="536" y1="296" x2="544" y2="296" class="solid"></line>
    <line x1="552" y1="296" x2="560" y2="296" class="solid"></line>
    <line x1="568" y1="296" x2="576" y2="296" class="solid"></line>
    <line x1="584" y1="296" x2="592" y2="296" class="solid"></line>
    <line x1="600" y1="296" x2="608" y2="296" class="solid"></line>
    <line x1="616" y1="296" x2="624" y2="296" class="solid"></line>
    <line x1="632" y1="296" x2="640" y2="296" class="solid"></line>
    <line x1="0" y1="488" x2="8" y2="488" class="solid"></line>
    <line x1="16" y1="488" x2="24" y2="488" class="solid"></line>
    <line x1="32" y1="488" x2="40" y2="488" class="solid"></line>
    <line x1="48" y1="488" x2="56" y2="488" class="solid"></line>
    <line x1="64" y1="488" x2="72" y2="488" class="solid"></line>
    <line x1="80" y1="488" x2="88" y2="488" class="solid"></line>
    <line x1="96" y1="488" x2="104" y2="488" class="solid"></line>
    <line x1="112" y1="488" x2="120" y2="488" class="solid"></line>
    <line x1="128" y1="488" x2="136" y2="488" class="solid"></line>
    <line x1="144" y1="488" x2="152" y2="488" class="solid"></line>
    <line x1="160" y1="488" x2="168" y2="488" class="solid"></line>
    <line x1="176" y1="488" x2="184" y2="488" class="solid"></line>
    <line x1="192" y1="488" x2="200" y2="488" class="solid"></line>
    <line x1="208" y1="488" x2="216" y2="488" class="solid"></line>
    <line x1="224" y1="488" x2="232" y2="488" class="solid"></line>
    <line x1="240" y1="488" x2="248" y2="488" class="solid"></line>
    <line x1="256" y1="488" x2="264" y2="488" class="solid"></line>
    <line x1="272" y1="488" x2="280" y2="488" class="solid"></line>
    <line x1="288" y1="488" x2="296" y2="488" class="solid"></line>
    <line x1="304" y1="488" x2="312" y2="488" class="solid"></line>
    <line x1="320" y1="488" x2="328" y2="488" class="solid"></line>
    <line x1="336" y1="488" x2="344" y2="488" class="solid"></line>
    <line x1="352" y1="488" x2="360" y2="488" class="solid"></line>
    <line x1="368" y1="488" x2="376" y2="488" class="solid"></line>
    <line x1="384" y1="488" x2="392" y2="488" class="solid"></line>
    <line x1="400" y1="488" x2="408" y2="488" class="solid"></line>
    <line x1="416" y1="488" x2="424" y2="488" class="solid"></line>
    <line x1="432" y1="488" x2="440" y2="488" class="solid"></line>
    <line x1="448" y1="488" x2="456" y2="488" class="solid"></line>
    <line x1="464" y1="488" x2="472" y2="488" class="solid"></line>
    <line x1="480" y1="488" x2="488" y2="488" class="solid"></line>
    <line x1="496" y1="488" x2="504" y2="488" class="solid"></line>
    <line x1="512" y1="488" x2="520" y2="488" class="solid"></line>
    <line x1="528" y1="488" x2="536" y2="488" class="solid"></line>
    <line x1="544" y1="488" x2="552" y2="488" class="solid"></line>
    <line x1="560" y1="488" x2="568" y2="488" class="solid"></line>
    <line x1="576" y1="488" x2="584" y2="488" class="solid"></line>
    <line x1="592" y1="488" x2="600" y2="488" class="solid"></line>
    <line x1="608" y1="488" x2="616" y2="488" class="solid"></line>
    <line x1="624" y1="488" x2="632" y2="488" class="solid"></line>
    <text x="466" y="28" >/bin/ls</text>
    <text x="554" y="28" >0,1,2</text>
    <text x="274" y="60" >child of</text>
    <text x="514" y="60" >child of</text>
    <text x="58" y="76" >terminal emulator</text>
    <text x="34" y="92" >e.g. xterm or alacritty</text>
    <text x="458" y="124" >/bin/bash</text>
    <text x="482" y="140" >0,1,2</text>
    <text x="42" y="220" >pseudoterminal master</text>
    <text x="410" y="220" >pseudoterminal master</text>
    <text x="82" y="236" >/dev/ptmx</text>
    <text x="458" y="236" >/dev/pts9</text>
    <text x="250" y="396" >PTMX driver</text>
    <text x="218" y="412" >/drivers/tty/pty.c</text>
    <g>
        <path d="M 456,8 A 4,4 0,0,0 452,12" class="nofill"></path>
        <line x1="452" y1="12" x2="452" y2="36" class="solid"></line>
        <line x1="456" y1="8" x2="608" y2="8" class="solid"></line>
        <path d="M 608,8 A 4,4 0,0,1 612,12" class="nofill"></path>
        <line x1="612" y1="12" x2="612" y2="36" class="solid"></line>
        <line x1="612" y1="24" x2="632" y2="24" class="solid"></line>
        <path d="M 632,24 A 4,4 0,0,1 636,28" class="nofill"></path>
        <line x1="636" y1="28" x2="636" y2="212" class="solid"></line>
        <path d="M 452,36 A 4,4 0,0,0 456,40" class="nofill"></path>
        <line x1="456" y1="40" x2="608" y2="40" class="solid"></line>
        <line x1="500" y1="40" x2="500" y2="68" class="solid"></line>
        <path d="M 612,36 A 4,4 0,0,1 608,40" class="nofill"></path>
        <polygon points="496,68 504,68 500,80" class="filled"></polygon>
        <path d="M 400,200 A 4,4 0,0,0 396,204" class="nofill"></path>
        <line x1="396" y1="204" x2="396" y2="244" class="solid"></line>
        <line x1="400" y1="200" x2="600" y2="200" class="solid"></line>
        <path d="M 600,200 A 4,4 0,0,1 604,204" class="nofill"></path>
        <line x1="604" y1="204" x2="604" y2="244" class="solid"></line>
        <line x1="604" y1="216" x2="632" y2="216" class="solid"></line>
        <path d="M 636,212 A 4,4 0,0,1 632,216" class="nofill"></path>
        <path d="M 396,244 A 4,4 0,0,0 400,248" class="nofill"></path>
        <line x1="400" y1="248" x2="600" y2="248" class="solid"></line>
        <line x1="500" y1="248" x2="500" y2="344" class="solid"></line>
        <path d="M 604,244 A 4,4 0,0,1 600,248" class="nofill"></path>
        <path d="M 40,344 A 4,4 0,0,0 36,348" class="nofill"></path>
        <line x1="36" y1="348" x2="36" y2="452" class="solid"></line>
        <line x1="40" y1="344" x2="544" y2="344" class="solid"></line>
        <path d="M 544,344 A 4,4 0,0,1 548,348" class="nofill"></path>
        <line x1="548" y1="348" x2="548" y2="452" class="solid"></line>
        <path d="M 36,452 A 4,4 0,0,0 40,456" class="nofill"></path>
        <line x1="40" y1="456" x2="544" y2="456" class="solid"></line>
        <path d="M 548,452 A 4,4 0,0,1 544,456" class="nofill"></path>
        <path d="M 24,40 A 4,4 0,0,0 20,44" class="nofill"></path>
        <line x1="20" y1="44" x2="20" y2="116" class="solid"></line>
        <line x1="24" y1="40" x2="240" y2="40" class="solid"></line>
        <path d="M 240,40 A 4,4 0,0,1 244,44" class="nofill"></path>
        <line x1="244" y1="44" x2="244" y2="116" class="solid"></line>
        <path d="M 20,116 A 4,4 0,0,0 24,120" class="nofill"></path>
        <line x1="24" y1="120" x2="240" y2="120" class="solid"></line>
        <line x1="132" y1="120" x2="132" y2="200" class="solid"></line>
        <path d="M 244,116 A 4,4 0,0,1 240,120" class="nofill"></path>
        <path d="M 32,200 A 4,4 0,0,0 28,204" class="nofill"></path>
        <line x1="28" y1="204" x2="28" y2="244" class="solid"></line>
        <line x1="32" y1="200" x2="232" y2="200" class="solid"></line>
        <path d="M 232,200 A 4,4 0,0,1 236,204" class="nofill"></path>
        <line x1="236" y1="204" x2="236" y2="244" class="solid"></line>
        <path d="M 28,244 A 4,4 0,0,0 32,248" class="nofill"></path>
        <line x1="32" y1="248" x2="232" y2="248" class="solid"></line>
        <line x1="132" y1="248" x2="132" y2="344" class="solid"></line>
        <path d="M 236,244 A 4,4 0,0,1 232,248" class="nofill"></path>
        <polygon points="256,68 248,72 256,76" class="filled"></polygon>
        <line x1="256" y1="72" x2="312" y2="72" class="solid"></line>
        <path d="M 312,72 A 4,4 0,0,1 316,76" class="nofill"></path>
        <line x1="316" y1="76" x2="316" y2="116" class="solid"></line>
        <path d="M 316,116 A 4,4 0,0,0 320,120" class="nofill"></path>
        <path d="M 392,88 A 4,4 0,0,0 388,92" class="nofill"></path>
        <line x1="388" y1="92" x2="388" y2="148" class="solid"></line>
        <line x1="392" y1="88" x2="608" y2="88" class="solid"></line>
        <path d="M 608,88 A 4,4 0,0,1 612,92" class="nofill"></path>
        <line x1="612" y1="92" x2="612" y2="148" class="solid"></line>
        <line x1="320" y1="120" x2="388" y2="120" class="solid"></line>
        <path d="M 388,148 A 4,4 0,0,0 392,152" class="nofill"></path>
        <line x1="392" y1="152" x2="608" y2="152" class="solid"></line>
        <line x1="500" y1="152" x2="500" y2="200" class="solid"></line>
        <path d="M 612,148 A 4,4 0,0,1 608,152" class="nofill"></path>
    </g>
</svg>
