<svg xmlns="http://www.w3.org/2000/svg" width="664" height="144">
    <style>
        line, path, circle, rect, polygon{stroke:black;stroke-width:1;stroke-opacity:1;fill-opacity:1;stroke-linecap:round;stroke-linejoin:miter;}text{font-family:Iosevka Fixed, monospace;font-size:14px;}rect.backdrop{stroke:none;fill:white;}.broken{stroke-dasharray:8;}.filled{fill:black;}.bg_filled{fill:white;}.nofill{fill:white;}.end_marked_arrow{marker-end:url(#arrow);}.start_marked_arrow{marker-start:url(#arrow);}.end_marked_diamond{marker-end:url(#diamond);}.start_marked_diamond{marker-start:url(#diamond);}.end_marked_circle{marker-end:url(#circle);}.start_marked_circle{marker-start:url(#circle);}.end_marked_open_circle{marker-end:url(#open_circle);}.start_marked_open_circle{marker-start:url(#open_circle);}.end_marked_big_open_circle{marker-end:url(#big_open_circle);}.start_marked_big_open_circle{marker-start:url(#big_open_circle);}
        <!--separator-->
        
    </style>
    <defs>
        <marker id="arrow" viewBox="-2 -2 8 8" refX="4" refY="2" markerWidth="7" markerHeight="7" orient="auto-start-reverse">
            <polygon points="0,0 0,4 4,2 0,0"></polygon>
        </marker>
        <marker id="diamond" viewBox="-2 -2 8 8" refX="4" refY="2" markerWidth="7" markerHeight="7" orient="auto-start-reverse">
            <polygon points="0,2 2,0 4,2 2,4 0,2"></polygon>
        </marker>
        <marker id="circle" viewBox="0 0 8 8" refX="4" refY="4" markerWidth="7" markerHeight="7" orient="auto-start-reverse">
            <circle cx="4" cy="4" r="2" class="filled"></circle>
        </marker>
        <marker id="open_circle" viewBox="0 0 8 8" refX="4" refY="4" markerWidth="7" markerHeight="7" orient="auto-start-reverse">
            <circle cx="4" cy="4" r="2" class="bg_filled"></circle>
        </marker>
        <marker id="big_open_circle" viewBox="0 0 8 8" refX="4" refY="4" markerWidth="7" markerHeight="7" orient="auto-start-reverse">
            <circle cx="4" cy="4" r="3" class="bg_filled"></circle>
        </marker>
    </defs>
    <rect class="backdrop" x="0" y="0" width="664" height="144"></rect>
    <text x="50" y="44" >Bash</text>
    <text x="170" y="108" >ls</text>
    <text x="650" y="108" >.</text>
    <text x="2" y="108" >fork()</text>
    <text x="218" y="108" >For simple commands the second fork() is omitted</text>
    <text x="2" y="124" >execve()</text>
    <g>
        <path d="M 40,24 A 4,4 0,0,0 36,28" class="nofill"></path>
        <line x1="36" y1="28" x2="36" y2="52" class="solid"></line>
        <line x1="40" y1="24" x2="88" y2="24" class="solid"></line>
        <path d="M 88,24 A 4,4 0,0,1 92,28" class="nofill"></path>
        <line x1="92" y1="28" x2="92" y2="52" class="solid"></line>
        <path d="M 36,52 A 4,4 0,0,0 40,56" class="nofill"></path>
        <line x1="40" y1="56" x2="88" y2="56" class="solid"></line>
        <line x1="68" y1="56" x2="68" y2="100" class="solid"></line>
        <path d="M 92,52 A 4,4 0,0,1 88,56" class="nofill"></path>
        <path d="M 68,100 A 4,4 0,0,0 72,104" class="nofill"></path>
        <path d="M 152,88 A 4,4 0,0,0 148,92" class="nofill"></path>
        <line x1="148" y1="92" x2="148" y2="116" class="solid"></line>
        <line x1="152" y1="88" x2="200" y2="88" class="solid"></line>
        <path d="M 200,88 A 4,4 0,0,1 204,92" class="nofill"></path>
        <line x1="204" y1="92" x2="204" y2="116" class="solid"></line>
        <line x1="72" y1="104" x2="148" y2="104" class="solid"></line>
        <path d="M 148,116 A 4,4 0,0,0 152,120" class="nofill"></path>
        <line x1="152" y1="120" x2="200" y2="120" class="solid"></line>
        <path d="M 204,116 A 4,4 0,0,1 200,120" class="nofill"></path>
    </g>
</svg>
