<svg xmlns="http://www.w3.org/2000/svg" width="1208" height="352">
    <style>
        line, path, circle, rect, polygon{stroke:black;stroke-width:1;stroke-opacity:1;fill-opacity:1;stroke-linecap:round;stroke-linejoin:miter;}text{font-family:Iosevka Fixed, monospace;font-size:14px;}rect.backdrop{stroke:none;fill:white;}.broken{stroke-dasharray:8;}.filled{fill:black;}.bg_filled{fill:white;}.nofill{fill:white;}.end_marked_arrow{marker-end:url(#arrow);}.start_marked_arrow{marker-start:url(#arrow);}.end_marked_diamond{marker-end:url(#diamond);}.start_marked_diamond{marker-start:url(#diamond);}.end_marked_circle{marker-end:url(#circle);}.start_marked_circle{marker-start:url(#circle);}.end_marked_open_circle{marker-end:url(#open_circle);}.start_marked_open_circle{marker-start:url(#open_circle);}.end_marked_big_open_circle{marker-end:url(#big_open_circle);}.start_marked_big_open_circle{marker-start:url(#big_open_circle);}
        <!--separator-->
        .o{  fill: #FF9800;  }
.c{  fill: #00BCD4;  }
.m{  fill: #9C27B0;  }
.b{  fill: #280071;  }
.r{  fill: #F9423A;  }
.v{  fill: #B1B5CE;  }
.p{  fill: #EACBBB;  }
.db{  fill: #071D49;  }
.bn{  fill: #633231;  }
.dw{  fill: #53565A;  }
.ddw{  fill: #6E6259;  }
.g{  fill: #26D07C;  }
.y{  fill: #E9EC6B;  }
.k{  fill: #000000;  }
.w{  fill: #FFFFFF;  }
    </style>
    <defs>
        <marker id="arrow" viewBox="-2 -2 8 8" refX="4" refY="2" markerWidth="7" markerHeight="7" orient="auto-start-reverse">
            <polygon points="0,0 0,4 4,2 0,0"></polygon>
        </marker>
        <marker id="diamond" viewBox="-2 -2 8 8" refX="4" refY="2" markerWidth="7" markerHeight="7" orient="auto-start-reverse">
            <polygon points="0,2 2,0 4,2 2,4 0,2"></polygon>
        </marker>
        <marker id="circle" viewBox="0 0 8 8" refX="4" refY="4" markerWidth="7" markerHeight="7" orient="auto-start-reverse">
            <circle cx="4" cy="4" r="2" class="filled"></circle>
        </marker>
        <marker id="open_circle" viewBox="0 0 8 8" refX="4" refY="4" markerWidth="7" markerHeight="7" orient="auto-start-reverse">
            <circle cx="4" cy="4" r="2" class="bg_filled"></circle>
        </marker>
        <marker id="big_open_circle" viewBox="0 0 8 8" refX="4" refY="4" markerWidth="7" markerHeight="7" orient="auto-start-reverse">
            <circle cx="4" cy="4" r="3" class="bg_filled"></circle>
        </marker>
    </defs>
    <rect class="backdrop" x="0" y="0" width="1208" height="352"></rect>
    <rect x="92" y="40" width="320" height="288" class="solid nofill" rx="4"></rect>
    <text x="106" y="76" >struct task_struct {</text>
    <text x="138" y="92" >struct list_head {</text>
    <text x="170" y="108" >struct list_head *next;</text>
    <text x="170" y="124" >struct list_head *prev;</text>
    <text x="138" y="140" >} tasks;</text>
    <text x="138" y="156" >pid_t pid;</text>
    <text x="138" y="172" >struct mm_struct *mm</text>
    <text x="138" y="188" >struct task_struct *real_parent;</text>
    <text x="138" y="204" >struct task_struct *parent;</text>
    <text x="138" y="220" >struct list_head children;</text>
    <text x="138" y="236" >struct sigpending pending;</text>
    <text x="138" y="252" >struct files_struct *files;</text>
    <text x="138" y="268" >void *stack</text>
    <text x="138" y="284" >...</text>
    <text x="106" y="300" >};</text>
    <rect x="452" y="40" width="320" height="288" class="solid nofill" rx="4"></rect>
    <text x="466" y="76" >struct task_struct {</text>
    <text x="498" y="92" >struct list_head {</text>
    <text x="530" y="108" >struct list_head *next;</text>
    <text x="530" y="124" >struct list_head *prev;</text>
    <text x="498" y="140" >} tasks;</text>
    <text x="498" y="156" >pid_t pid;</text>
    <text x="498" y="172" >struct mm_struct *mm</text>
    <text x="498" y="188" >struct task_struct *real_parent;</text>
    <text x="498" y="204" >struct task_struct *parent;</text>
    <text x="498" y="220" >struct list_head children;</text>
    <text x="498" y="236" >struct sigpending pending;</text>
    <text x="498" y="252" >struct files_struct *files;</text>
    <text x="498" y="268" >void *stack</text>
    <text x="498" y="284" >...</text>
    <text x="466" y="300" >};</text>
    <rect x="812" y="40" width="320" height="288" class="solid nofill" rx="4"></rect>
    <text x="826" y="76" >struct task_struct {</text>
    <text x="858" y="92" >struct list_head {</text>
    <text x="890" y="108" >struct list_head *next;</text>
    <text x="890" y="124" >struct list_head *prev;</text>
    <text x="858" y="140" >} tasks;</text>
    <text x="858" y="156" >pid_t pid;</text>
    <text x="858" y="172" >struct mm_struct *mm</text>
    <text x="858" y="188" >struct task_struct *real_parent;</text>
    <text x="858" y="204" >struct task_struct *parent;</text>
    <text x="858" y="220" >struct list_head children;</text>
    <text x="858" y="236" >struct sigpending pending;</text>
    <text x="858" y="252" >struct files_struct *files;</text>
    <text x="858" y="268" >void *stack</text>
    <text x="858" y="284" >...</text>
    <text x="826" y="300" >};</text>
    <text x="1178" y="108" >...</text>
    <text x="26" y="124" >...</text>
    <g>
        <line x1="368" y1="104" x2="440" y2="104" class="solid"></line>
        <polygon points="440,100 448,104 440,108" class="filled"></polygon>
    </g>
    <g>
        <line x1="728" y1="104" x2="800" y2="104" class="solid"></line>
        <polygon points="800,100 808,104 800,108" class="filled"></polygon>
    </g>
    <g>
        <line x1="1088" y1="104" x2="1160" y2="104" class="solid"></line>
        <polygon points="1160,100 1168,104 1160,108" class="filled"></polygon>
    </g>
    <g>
        <polygon points="64,116 56,120 64,124" class="filled"></polygon>
        <line x1="64" y1="120" x2="168" y2="120" class="solid"></line>
    </g>
    <g>
        <polygon points="424,116 416,120 424,124" class="filled"></polygon>
        <line x1="424" y1="120" x2="528" y2="120" class="solid"></line>
    </g>
    <g>
        <polygon points="784,116 776,120 784,124" class="filled"></polygon>
        <line x1="784" y1="120" x2="888" y2="120" class="solid"></line>
    </g>
</svg>
