<svg xmlns="http://www.w3.org/2000/svg" width="752" height="256">
    <style>
        line, path, circle, rect, polygon{stroke:black;stroke-width:1;stroke-opacity:1;fill-opacity:1;stroke-linecap:round;stroke-linejoin:miter;}text{font-family:Iosevka Fixed, monospace;font-size:14px;}rect.backdrop{stroke:none;fill:white;}.broken{stroke-dasharray:8;}.filled{fill:black;}.bg_filled{fill:white;}.nofill{fill:white;}.end_marked_arrow{marker-end:url(#arrow);}.start_marked_arrow{marker-start:url(#arrow);}.end_marked_diamond{marker-end:url(#diamond);}.start_marked_diamond{marker-start:url(#diamond);}.end_marked_circle{marker-end:url(#circle);}.start_marked_circle{marker-start:url(#circle);}.end_marked_open_circle{marker-end:url(#open_circle);}.start_marked_open_circle{marker-start:url(#open_circle);}.end_marked_big_open_circle{marker-end:url(#big_open_circle);}.start_marked_big_open_circle{marker-start:url(#big_open_circle);}
        <!--separator-->
        
    </style>
    <defs>
        <marker id="arrow" viewBox="-2 -2 8 8" refX="4" refY="2" markerWidth="7" markerHeight="7" orient="auto-start-reverse">
            <polygon points="0,0 0,4 4,2 0,0"></polygon>
        </marker>
        <marker id="diamond" viewBox="-2 -2 8 8" refX="4" refY="2" markerWidth="7" markerHeight="7" orient="auto-start-reverse">
            <polygon points="0,2 2,0 4,2 2,4 0,2"></polygon>
        </marker>
        <marker id="circle" viewBox="0 0 8 8" refX="4" refY="4" markerWidth="7" markerHeight="7" orient="auto-start-reverse">
            <circle cx="4" cy="4" r="2" class="filled"></circle>
        </marker>
        <marker id="open_circle" viewBox="0 0 8 8" refX="4" refY="4" markerWidth="7" markerHeight="7" orient="auto-start-reverse">
            <circle cx="4" cy="4" r="2" class="bg_filled"></circle>
        </marker>
        <marker id="big_open_circle" viewBox="0 0 8 8" refX="4" refY="4" markerWidth="7" markerHeight="7" orient="auto-start-reverse">
            <circle cx="4" cy="4" r="3" class="bg_filled"></circle>
        </marker>
    </defs>
    <rect class="backdrop" x="0" y="0" width="752" height="256"></rect>
    <text x="226" y="204" >pipefd[1]</text>
    <text x="322" y="204" >pipefd[0]</text>
    <text x="298" y="60" >Bash</text>
    <text x="154" y="204" >1</text>
    <text x="474" y="204" >0</text>
    <text x="602" y="204" >1</text>
    <text x="738" y="204" >.</text>
    <text x="250" y="76" >int pipefd[2];</text>
    <text x="250" y="92" >pipe(pipefd);</text>
    <text x="34" y="204" >cat foo.txt</text>
    <text x="498" y="204" >grep bar</text>
    <text x="658" y="204" >terminal</text>
    <g>
        <path d="M 240,24 A 4,4 0,0,0 236,28" class="nofill"></path>
        <line x1="236" y1="28" x2="236" y2="116" class="solid"></line>
        <line x1="240" y1="24" x2="384" y2="24" class="solid"></line>
        <path d="M 384,24 A 4,4 0,0,1 388,28" class="nofill"></path>
        <line x1="388" y1="28" x2="388" y2="116" class="solid"></line>
        <line x1="388" y1="72" x2="536" y2="72" class="solid"></line>
        <path d="M 536,72 A 4,4 0,0,1 540,76" class="nofill"></path>
        <line x1="540" y1="76" x2="540" y2="168" class="solid"></line>
        <path d="M 236,116 A 4,4 0,0,0 240,120" class="nofill"></path>
        <line x1="240" y1="120" x2="384" y2="120" class="solid"></line>
        <path d="M 388,116 A 4,4 0,0,1 384,120" class="nofill"></path>
        <path d="M 96,72 A 4,4 0,0,0 92,76" class="nofill"></path>
        <line x1="92" y1="76" x2="92" y2="168" class="solid"></line>
        <line x1="96" y1="72" x2="236" y2="72" class="solid"></line>
        <path d="M 16,168 A 4,4 0,0,0 12,172" class="nofill"></path>
        <line x1="12" y1="172" x2="12" y2="228" class="solid"></line>
        <line x1="16" y1="168" x2="168" y2="168" class="solid"></line>
        <path d="M 168,168 A 4,4 0,0,1 172,172" class="nofill"></path>
        <line x1="172" y1="172" x2="172" y2="228" class="solid"></line>
        <line x1="172" y1="200" x2="200" y2="200" class="solid"></line>
        <polygon points="200,196 208,200 200,204" class="filled"></polygon>
        <path d="M 12,228 A 4,4 0,0,0 16,232" class="nofill"></path>
        <line x1="16" y1="232" x2="168" y2="232" class="solid"></line>
        <path d="M 172,228 A 4,4 0,0,1 168,232" class="nofill"></path>
        <path d="M 464,168 A 4,4 0,0,0 460,172" class="nofill"></path>
        <line x1="460" y1="172" x2="460" y2="228" class="solid"></line>
        <line x1="464" y1="168" x2="616" y2="168" class="solid"></line>
        <path d="M 616,168 A 4,4 0,0,1 620,172" class="nofill"></path>
        <line x1="620" y1="172" x2="620" y2="228" class="solid"></line>
        <line x1="620" y1="200" x2="640" y2="200" class="solid"></line>
        <polygon points="640,196 648,200 640,204" class="filled"></polygon>
        <path d="M 460,228 A 4,4 0,0,0 464,232" class="nofill"></path>
        <line x1="464" y1="232" x2="616" y2="232" class="solid"></line>
        <path d="M 620,228 A 4,4 0,0,1 616,232" class="nofill"></path>
    </g>
    <g>
        <path d="M 216,184 A 4,4 0,0,0 212,188" class="nofill"></path>
        <line x1="212" y1="188" x2="212" y2="212" class="solid"></line>
        <line x1="216" y1="184" x2="400" y2="184" class="solid"></line>
        <path d="M 400,184 A 4,4 0,0,1 404,188" class="nofill"></path>
        <line x1="404" y1="188" x2="404" y2="212" class="solid"></line>
        <line x1="404" y1="200" x2="448" y2="200" class="solid"></line>
        <polygon points="448,196 456,200 448,204" class="filled"></polygon>
        <path d="M 212,212 A 4,4 0,0,0 216,216" class="nofill"></path>
        <line x1="216" y1="216" x2="400" y2="216" class="solid"></line>
        <path d="M 404,212 A 4,4 0,0,1 400,216" class="nofill"></path>
    </g>
</svg>
